<svg xmlns="http://www.w3.org/2000/svg" xmlns:xlink="http://www.w3.org/1999/xlink" viewBox="0 0 107 20"><path d="M 103.137 0 L 106.667 0 L 106.667 19.668 L 103.337 19.668 L 103.251 17.59 C 102.815 18.366 102.198 18.966 101.401 19.391 C 100.623 19.797 99.694 20 98.612 20 C 97.227 20 96.05 19.658 95.083 18.975 C 94.134 18.292 93.422 17.368 92.948 16.205 C 92.474 15.041 92.236 13.749 92.236 12.327 C 92.236 10.905 92.474 9.612 92.948 8.449 C 93.422 7.285 94.134 6.362 95.083 5.679 C 96.05 4.995 97.227 4.654 98.612 4.654 C 99.656 4.654 100.557 4.848 101.316 5.235 C 102.075 5.623 102.682 6.196 103.137 6.953 Z M 102.967 14.737 C 103.232 13.998 103.365 13.195 103.365 12.327 C 103.365 11.404 103.232 10.573 102.967 9.834 C 102.701 9.095 102.284 8.504 101.714 8.061 C 101.145 7.599 100.443 7.368 99.608 7.368 C 98.356 7.368 97.417 7.839 96.79 8.781 C 96.164 9.723 95.851 10.905 95.851 12.327 C 95.851 13.693 96.164 14.848 96.79 15.79 C 97.436 16.713 98.375 17.175 99.608 17.175 C 100.462 17.175 101.164 16.953 101.714 16.51 C 102.284 16.067 102.701 15.476 102.967 14.737 Z" fill="rgb(30, 41, 59)"></path><path d="M 81.338 4.986 L 81.509 9.058 L 81.053 8.809 C 81.281 7.387 81.831 6.343 82.704 5.679 C 83.596 4.995 84.687 4.654 85.977 4.654 C 87.628 4.654 88.899 5.162 89.791 6.177 C 90.683 7.175 91.129 8.523 91.129 10.222 L 91.129 19.668 L 87.6 19.668 L 87.6 11.302 C 87.6 10.434 87.514 9.723 87.343 9.169 C 87.173 8.615 86.888 8.19 86.49 7.895 C 86.11 7.599 85.598 7.452 84.953 7.452 C 83.928 7.452 83.122 7.784 82.533 8.449 C 81.964 9.095 81.68 10.046 81.68 11.302 L 81.68 19.668 L 78.15 19.668 L 78.15 4.986 Z" fill="rgb(30, 41, 59)"></path><path d="M 62.248 9.446 C 62.551 7.932 63.282 6.759 64.439 5.928 C 65.597 5.078 67.086 4.654 68.908 4.654 C 71.071 4.654 72.712 5.189 73.832 6.26 C 74.951 7.331 75.511 8.892 75.511 10.942 L 75.511 16.067 C 75.511 16.454 75.587 16.731 75.739 16.898 C 75.909 17.045 76.147 17.119 76.45 17.119 L 77.019 17.119 L 77.019 19.668 L 76.137 19.695 L 76.023 19.695 C 75.511 19.714 74.989 19.677 74.458 19.584 C 73.946 19.492 73.49 19.28 73.092 18.947 C 72.693 18.615 72.466 18.107 72.409 17.424 C 72.029 18.181 71.412 18.8 70.559 19.28 C 69.705 19.76 68.661 20 67.428 20 C 65.872 20 64.572 19.621 63.529 18.864 C 62.504 18.089 61.992 17.073 61.992 15.817 C 61.992 14.894 62.21 14.146 62.646 13.573 C 63.102 13.001 63.728 12.549 64.525 12.216 C 65.341 11.884 66.403 11.597 67.712 11.357 L 71.953 10.526 C 71.934 9.4 71.678 8.569 71.185 8.033 C 70.692 7.479 69.933 7.202 68.908 7.202 C 68.111 7.202 67.447 7.415 66.915 7.839 C 66.403 8.246 66.052 8.846 65.862 9.64 Z M 65.635 15.706 C 65.635 16.242 65.862 16.685 66.318 17.036 C 66.792 17.368 67.466 17.535 68.339 17.535 C 69.041 17.535 69.667 17.368 70.217 17.036 C 70.786 16.704 71.223 16.205 71.526 15.54 C 71.849 14.857 72.01 14.035 72.01 13.075 L 72.01 12.936 L 69.107 13.435 L 68.595 13.518 C 67.893 13.647 67.342 13.776 66.944 13.906 C 66.565 14.035 66.251 14.247 66.005 14.543 C 65.758 14.82 65.635 15.208 65.635 15.706 Z" fill="rgb(30, 41, 59)"></path><path d="M 56.711 4.986 L 56.825 9.086 L 56.569 8.92 C 56.758 7.572 57.157 6.584 57.764 5.956 C 58.39 5.309 59.263 4.986 60.383 4.986 L 61.806 4.986 L 61.806 7.673 L 60.383 7.673 C 59.586 7.673 58.931 7.812 58.419 8.089 C 57.906 8.347 57.527 8.744 57.28 9.28 C 57.053 9.797 56.939 10.452 56.939 11.246 L 56.939 19.668 L 53.41 19.668 L 53.41 4.986 Z" fill="rgb(30, 41, 59)"></path><path d="M 41.108 0 L 41.108 6.953 C 41.563 6.196 42.17 5.623 42.929 5.235 C 43.688 4.848 44.59 4.654 45.633 4.654 C 47.018 4.654 48.185 4.995 49.134 5.679 C 50.102 6.362 50.823 7.285 51.297 8.449 C 51.772 9.612 52.009 10.905 52.009 12.327 C 52.009 13.749 51.772 15.042 51.297 16.205 C 50.823 17.368 50.102 18.292 49.134 18.975 C 48.185 19.658 47.018 20 45.633 20 C 44.552 20 43.612 19.797 42.816 19.391 C 42.038 18.966 41.43 18.366 40.994 17.59 L 40.909 19.668 L 37.578 19.668 L 37.578 0 Z M 40.88 12.327 C 40.88 13.195 41.013 13.998 41.279 14.737 C 41.544 15.475 41.952 16.066 42.502 16.51 C 43.072 16.953 43.783 17.174 44.637 17.174 C 45.87 17.174 46.8 16.713 47.426 15.789 C 48.071 14.848 48.394 13.693 48.394 12.327 C 48.394 10.905 48.081 9.723 47.455 8.781 C 46.829 7.839 45.889 7.368 44.637 7.368 C 43.802 7.368 43.1 7.599 42.531 8.061 C 41.962 8.504 41.544 9.095 41.279 9.834 C 41.013 10.572 40.88 11.403 40.88 12.327 Z" fill="rgb(30, 41, 59)"></path><path d="M 33.864 15.983 C 34.41 15.983 34.853 16.414 34.853 16.946 L 34.853 18.705 C 34.853 19.236 34.41 19.668 33.864 19.668 L 31.858 19.668 C 31.311 19.668 30.868 19.236 30.868 18.705 L 30.868 16.946 C 30.868 16.414 31.311 15.983 31.858 15.983 Z M 33.864 6.704 C 34.41 6.704 34.853 7.135 34.853 7.667 L 34.853 9.425 C 34.853 9.957 34.41 10.388 33.864 10.388 L 31.858 10.388 C 31.311 10.388 30.868 9.957 30.868 9.425 L 30.868 7.667 C 30.868 7.135 31.311 6.704 31.858 6.704 Z" fill="rgb(30, 41, 59)"></path><path d="M 22.23 20 C 20.75 20 19.451 19.686 18.331 19.058 C 17.231 18.43 16.367 17.535 15.741 16.371 C 15.134 15.208 14.83 13.86 14.83 12.327 C 14.83 10.776 15.134 9.428 15.741 8.283 C 16.367 7.119 17.231 6.223 18.331 5.596 C 19.451 4.968 20.75 4.654 22.23 4.654 C 23.71 4.654 25.01 4.968 26.13 5.596 C 27.249 6.223 28.113 7.119 28.72 8.283 C 29.327 9.428 29.631 10.776 29.631 12.327 C 29.631 13.86 29.327 15.208 28.72 16.371 C 28.113 17.535 27.249 18.43 26.13 19.058 C 25.01 19.686 23.71 20 22.23 20 Z M 22.23 17.174 C 23.445 17.174 24.375 16.75 25.02 15.9 C 25.665 15.051 25.987 13.86 25.987 12.327 C 25.987 10.794 25.665 9.603 25.02 8.753 C 24.375 7.904 23.445 7.479 22.23 7.479 C 21.035 7.479 20.105 7.904 19.441 8.753 C 18.796 9.603 18.473 10.794 18.473 12.327 C 18.473 13.86 18.796 15.051 19.441 15.9 C 20.105 16.75 21.035 17.174 22.23 17.174 Z" fill="rgb(30, 41, 59)"></path><path d="M 10.673 10.332 C 10.54 9.428 10.17 8.726 9.563 8.227 C 8.956 7.729 8.235 7.479 7.4 7.479 C 6.205 7.479 5.275 7.904 4.611 8.753 C 3.966 9.603 3.643 10.794 3.643 12.327 C 3.643 13.86 3.966 15.051 4.611 15.9 C 5.275 16.75 6.205 17.174 7.4 17.174 C 8.292 17.174 9.041 16.916 9.649 16.399 C 10.256 15.863 10.635 15.106 10.787 14.127 L 14.43 14.294 C 14.297 15.457 13.908 16.473 13.263 17.341 C 12.618 18.19 11.783 18.846 10.759 19.308 C 9.753 19.769 8.633 20 7.4 20 C 5.92 20 4.62 19.686 3.501 19.058 C 2.4 18.43 1.537 17.535 0.911 16.371 C 0.304 15.208 0 13.86 0 12.327 C 0 10.776 0.304 9.428 0.911 8.283 C 1.537 7.119 2.4 6.223 3.501 5.596 C 4.62 4.968 5.92 4.654 7.4 4.654 C 8.596 4.654 9.696 4.875 10.702 5.319 C 11.707 5.762 12.523 6.399 13.149 7.23 C 13.795 8.061 14.184 9.03 14.316 10.139 Z" fill="rgb(30, 41, 59)"></path><path d="M 14.773 0.923 C 14.87 0.923 14.964 0.954 15.041 1.013 C 15.118 1.071 15.172 1.152 15.196 1.244 L 15.345 1.83 C 15.483 2.361 15.909 2.776 16.455 2.91 L 17.057 3.056 C 17.151 3.079 17.235 3.131 17.295 3.206 C 17.355 3.281 17.388 3.373 17.388 3.467 C 17.388 3.562 17.355 3.654 17.295 3.729 C 17.235 3.803 17.151 3.856 17.057 3.879 L 16.455 4.025 C 15.909 4.158 15.483 4.574 15.345 5.105 L 15.196 5.691 C 15.172 5.783 15.118 5.865 15.041 5.923 C 14.965 5.981 14.87 6.013 14.773 6.013 C 14.675 6.013 14.581 5.981 14.504 5.923 C 14.428 5.865 14.373 5.783 14.35 5.691 L 14.2 5.105 C 14.133 4.844 13.994 4.606 13.799 4.415 C 13.603 4.225 13.358 4.09 13.09 4.025 L 12.489 3.879 C 12.394 3.856 12.31 3.803 12.25 3.729 C 12.19 3.654 12.158 3.562 12.158 3.467 C 12.158 3.373 12.19 3.281 12.25 3.206 C 12.31 3.131 12.394 3.079 12.489 3.056 L 13.09 2.91 C 13.358 2.845 13.603 2.71 13.799 2.519 C 13.994 2.329 14.133 2.091 14.2 1.83 L 14.35 1.244 C 14.373 1.152 14.428 1.071 14.505 1.013 C 14.581 0.954 14.675 0.923 14.773 0.923 Z" fill="rgb(30, 41, 59)"></path></svg>