<svg preserveAspectRatio="xMidYMid meet" data-bbox="0 0 396.08 103.61" viewBox="0 0 396.08 103.61" xmlns="http://www.w3.org/2000/svg" data-type="color" role="presentation" aria-hidden="true" aria-label="">
    <g>
        <path d="M140.98 46.28V13.95h5.22v32.32h-5.22Z" fill="#241f20" data-color="1"></path>
        <path d="m19.72 73.9-3.77-3.77 12.31-12.31a8.084 8.084 0 0 0 2.37-5.8c-.02-2.21-.89-4.3-2.47-5.88L0 17.97l3.77-3.77 28.16 28.16c2.58 2.58 4.01 5.99 4.03 9.61.02 3.64-1.37 7.05-3.93 9.61L19.72 73.89Z" fill="#241f20" data-color="1"></path>
        <path d="M48.18 39.76c-3.6 0-6.98-1.39-9.52-3.93L26.35 23.52l3.77-3.77 12.31 12.31c1.54 1.54 3.67 2.36 5.8 2.37 2.21-.01 4.3-.89 5.88-2.47L82.28 3.79l3.77 3.77-28.16 28.16c-2.58 2.58-5.99 4.01-9.62 4.03h-.09Z" fill="#241f20" data-color="1"></path>
        <path d="M92.26 89.42 64.1 61.26c-5.33-5.33-5.37-13.95-.1-19.23l12.31-12.31 3.77 3.77L67.77 45.8c-3.19 3.19-3.15 8.44.1 11.69l28.16 28.16-3.77 3.77Z" fill="#241f20" data-color="1"></path>
        <path d="m13.75 99.82-3.77-3.77 28.16-28.16c5.33-5.33 13.95-5.37 19.22-.1L69.68 80.1l-3.77 3.77L53.6 71.56c-3.19-3.19-8.43-3.15-11.68.1L13.76 99.82Z" fill="#241f20" data-color="1"></path>
        <path d="M134.56 13.95h-9.73V6.48c0-1.1.89-1.98 1.98-1.98h9.54V0h-10.99c-1.85 0-3.27.51-4.26 1.52-.99 1.02-1.49 2.4-1.49 4.17v8.26h-9.91v4.56h9.91v27.76h5.22V18.51h9.73" fill="#241f20" data-color="1"></path>
        <path d="M153.53 46.27V24.42c0-5.85 4.75-10.6 10.6-10.6h6.59v4.76h-4.16c-2.34 0-4.22.65-5.65 1.95-1.43 1.3-2.15 3.32-2.15 6.05v19.7h-5.22Z" fill="#241f20" data-color="1"></path>
        <path d="M188.88 47.19c-4.01 0-7.39-.93-10.15-2.78-2.75-1.85-4.42-4.78-4.99-8.79l4.96-1.12c.35 2.11 1.01 3.78 1.98 4.99a7.97 7.97 0 0 0 3.6 2.58c1.43.51 2.96.76 4.59.76 2.42 0 4.34-.48 5.75-1.45 1.41-.97 2.12-2.27 2.12-3.9s-.67-2.85-2.02-3.54c-1.35-.68-3.18-1.24-5.52-1.68l-2.71-.46c-2.07-.35-3.97-.9-5.68-1.65-1.72-.75-3.08-1.76-4.1-3.04-1.01-1.28-1.52-2.89-1.52-4.82 0-2.91 1.12-5.18 3.37-6.81s5.22-2.45 8.92-2.45 6.62.83 8.89 2.48c2.27 1.65 3.73 3.98 4.4 6.97l-4.89 1.26c-.4-2.33-1.34-3.98-2.84-4.92-1.5-.95-3.35-1.42-5.55-1.42s-3.94.41-5.22 1.22c-1.28.82-1.92 2.02-1.92 3.6s.61 2.68 1.82 3.4c1.21.73 2.83 1.27 4.86 1.62l2.71.46c2.29.4 4.35.94 6.18 1.62 1.83.68 3.28 1.66 4.36 2.94 1.08 1.28 1.62 2.95 1.62 5.02 0 3.17-1.18 5.62-3.54 7.34-2.36 1.72-5.52 2.58-9.49 2.58Z" fill="#241f20" data-color="1"></path>
        <path d="M119.62 103.61V58.07h5.09v5.35h.93c.84-1.63 2.19-3.08 4.06-4.36 1.87-1.28 4.48-1.92 7.83-1.92 2.78 0 5.32.67 7.63 2.02 2.31 1.34 4.16 3.25 5.55 5.72 1.39 2.47 2.08 5.44 2.08 8.92v.86c0 3.44-.68 6.41-2.05 8.92-1.37 2.51-3.21 4.43-5.52 5.75-2.31 1.32-4.88 1.98-7.7 1.98-2.25 0-4.15-.3-5.72-.89-1.56-.59-2.83-1.36-3.8-2.28-.97-.93-1.72-1.87-2.25-2.84h-.92v18.31h-5.22Zm16.52-16.92c3.35 0 6.07-1.07 8.16-3.21 2.09-2.14 3.14-5.12 3.14-8.96v-.59c0-3.83-1.05-6.82-3.14-8.96-2.09-2.14-4.81-3.2-8.16-3.2s-6.03 1.07-8.16 3.2c-2.14 2.14-3.21 5.12-3.21 8.96v.59c0 3.83 1.07 6.82 3.21 8.96 2.14 2.14 4.86 3.21 8.16 3.21Z" fill="#241f20" data-color="1"></path>
        <path d="M181.99 90.39V58.07h5.22v32.32h-5.22Z" fill="#241f20" data-color="1"></path>
        <path d="M194.3 90.39V58.07h5.09v5.49h.93c.7-1.54 1.91-2.94 3.6-4.2 1.7-1.26 4.2-1.88 7.5-1.88 2.42 0 4.59.51 6.51 1.52 1.92 1.02 3.45 2.51 4.59 4.5 1.15 1.98 1.72 4.43 1.72 7.34v19.57h-5.22V71.24c0-3.22-.8-5.55-2.41-7.01-1.61-1.45-3.78-2.18-6.51-2.18-3.13 0-5.67 1.01-7.63 3.04-1.96 2.03-2.94 5.05-2.94 9.06v16.26h-5.22Z" fill="#241f20" data-color="1"></path>
        <path d="M245.67 91.32c-3.13 0-5.94-.67-8.43-2.02-2.49-1.34-4.45-3.27-5.88-5.78-1.43-2.51-2.15-5.49-2.15-8.92v-.73c0-3.48.72-6.47 2.15-8.96 1.43-2.49 3.39-4.41 5.88-5.75 2.49-1.35 5.3-2.02 8.43-2.02s5.72.57 7.9 1.72c2.18 1.15 3.9 2.67 5.16 4.56 1.26 1.9 2.06 3.92 2.41 6.08l-5.09 1.06c-.22-1.59-.74-3.04-1.55-4.36-.82-1.32-1.95-2.38-3.4-3.17s-3.24-1.19-5.35-1.19-4.09.49-5.78 1.45c-1.7.97-3.04 2.36-4.03 4.16-.99 1.81-1.49 3.97-1.49 6.48v.59c0 2.51.5 4.67 1.49 6.48.99 1.81 2.34 3.2 4.03 4.16 1.7.97 3.62 1.45 5.78 1.45 3.22 0 5.67-.84 7.37-2.51 1.7-1.67 2.74-3.74 3.14-6.21l5.16 1.12c-.49 2.12-1.37 4.12-2.64 6.02-1.28 1.89-3.01 3.42-5.19 4.56-2.18 1.15-4.82 1.72-7.9 1.72Z" fill="#241f20" data-color="1"></path>
        <path d="M267.68 90.39V58.07h5.22v32.32h-5.22Z" fill="#241f20" data-color="1"></path>
        <path d="M281.23 103.61V58.07h5.09v5.35h.93c.84-1.63 2.19-3.08 4.06-4.36 1.87-1.28 4.48-1.92 7.83-1.92 2.78 0 5.32.67 7.63 2.02 2.31 1.34 4.16 3.25 5.55 5.72 1.39 2.47 2.08 5.44 2.08 8.92v.86c0 3.44-.68 6.41-2.05 8.92-1.37 2.51-3.21 4.43-5.52 5.75-2.31 1.32-4.88 1.98-7.7 1.98-2.25 0-4.15-.3-5.72-.89-1.56-.59-2.83-1.36-3.8-2.28-.97-.93-1.72-1.87-2.25-2.84h-.92v18.31h-5.22Zm16.52-16.92c3.35 0 6.07-1.07 8.16-3.21 2.09-2.14 3.14-5.12 3.14-8.96v-.59c0-3.83-1.05-6.82-3.14-8.96-2.09-2.14-4.81-3.2-8.16-3.2s-6.03 1.07-8.16 3.2c-2.14 2.14-3.21 5.12-3.21 8.96v.59c0 3.83 1.07 6.82 3.21 8.96 2.14 2.14 4.86 3.21 8.16 3.21Z" fill="#241f20" data-color="1"></path>
        <path d="M383.06 91.32c-4.01 0-7.39-.93-10.15-2.78-2.75-1.85-4.42-4.78-4.99-8.79l4.96-1.12c.35 2.11 1.01 3.78 1.98 4.99a7.97 7.97 0 0 0 3.6 2.58c1.43.51 2.96.76 4.59.76 2.42 0 4.34-.48 5.75-1.45 1.41-.97 2.12-2.27 2.12-3.9s-.67-2.85-2.02-3.54c-1.35-.68-3.18-1.24-5.52-1.68l-2.71-.46c-2.07-.35-3.97-.9-5.68-1.65s-3.08-1.76-4.1-3.04c-1.01-1.28-1.52-2.89-1.52-4.82 0-2.91 1.12-5.18 3.37-6.81s5.22-2.45 8.92-2.45 6.62.83 8.89 2.48c2.27 1.65 3.73 3.98 4.4 6.97l-4.89 1.26c-.4-2.33-1.34-3.98-2.84-4.92-1.5-.95-3.35-1.42-5.55-1.42s-3.94.41-5.22 1.22c-1.28.82-1.92 2.02-1.92 3.6s.61 2.68 1.82 3.4c1.21.73 2.83 1.27 4.86 1.62l2.71.46c2.29.4 4.35.94 6.18 1.62 1.83.68 3.28 1.66 4.36 2.94 1.08 1.28 1.62 2.95 1.62 5.02 0 3.17-1.18 5.62-3.54 7.34-2.36 1.72-5.52 2.58-9.49 2.58Z" fill="#241f20" data-color="1"></path>
        <path d="M158.27 90.4V68.55c0-5.85 4.75-10.6 10.6-10.6h6.59v4.76h-4.16c-2.34 0-4.22.65-5.65 1.95-1.43 1.3-2.15 3.32-2.15 6.05v19.7h-5.22Z" fill="#241f20" data-color="1"></path>
        <path d="M349.3 91.32c-3.26 0-6.12-.69-8.59-2.08-2.47-1.39-4.39-3.34-5.75-5.85-1.37-2.51-2.05-5.42-2.05-8.73v-.79c0-3.35.68-6.28 2.05-8.79s3.26-4.46 5.68-5.85c2.42-1.39 5.2-2.08 8.33-2.08s5.73.65 8.06 1.95c2.34 1.3 4.16 3.16 5.49 5.59 1.32 2.42 1.98 5.27 1.98 8.53v2.38h-26.37c.13 3.48 1.26 6.2 3.37 8.16 2.12 1.96 4.76 2.94 7.93 2.94 2.78 0 4.91-.64 6.41-1.92 1.5-1.28 2.64-2.8 3.44-4.56l4.49 2.18c-.66 1.37-1.58 2.73-2.74 4.1-1.17 1.37-2.69 2.51-4.56 3.44-1.87.93-4.26 1.39-7.17 1.39Zm-11.1-20.03h21.02c-.18-3-1.2-5.33-3.07-7.01-1.87-1.67-4.26-2.51-7.17-2.51s-5.38.84-7.27 2.51c-1.9 1.68-3.06 4.01-3.5 7.01Z" fill="#241f20" data-color="1"></path>
        <path d="M219.23 46.27c-1.85 0-3.27-.51-4.26-1.52s-1.49-2.4-1.49-4.16V18.51h-9.72v-4.56h9.72V2.45h5.22v11.5h10.58v4.56H218.7v21.28c0 1.32.64 1.98 1.92 1.98h7.2v4.5h-8.59Z" fill="#241f20" data-color="1"></path>
        <path d="M325.52 90.39c-1.85 0-3.27-.51-4.26-1.52s-1.49-2.4-1.49-4.16V46.17h5.22v37.75c0 1.32.64 1.98 1.92 1.98h4.38v4.5h-5.77Z" fill="#241f20" data-color="1"></path>
    </g>
</svg>